<svg width="50" height="30" viewBox="0 0 152 80" fill="none" xmlns="http://www.w3.org/2000/svg">
<g style="mix-blend-mode:difference">
<path d="M39.75 0.625C44.0833 0.625 48.3333 1.125 52.5 2.125C56.75 3.125 60.7917 4.625 64.625 6.625C68.4583 8.54167 71.8333 11.125 74.75 14.375C77.75 17.625 79.375 21.5 79.625 26V31.25V71.125C79.125 76.125 76.375 78.8333 71.375 79.25C69.0417 79.25 67 78.5 65.25 77C63.5833 75.4167 62.75 73.4583 62.75 71.125V29.875C62.5833 27.2917 61.5833 25.1667 59.75 23.5C58 21.75 56 20.375 53.75 19.375C51.5833 18.375 49.2917 17.625 46.875 17.125C44.5417 16.625 42.1667 16.375 39.75 16.375C37.3333 16.375 34.9167 16.625 32.5 17.125C30.1667 17.625 27.875 18.375 25.625 19.375C23.4583 20.375 21.4583 21.75 19.625 23.5C17.875 25.1667 16.9167 27.2917 16.75 29.875V71.125C16.3333 76.125 13.625 78.8333 8.625 79.25C6.29167 79.25 4.25 78.5 2.5 77C0.833333 75.4167 0 73.4583 0 71.125V31.25V26C0.25 21.5 1.83333 17.625 4.75 14.375C7.66667 11.125 11.0417 8.54167 14.875 6.625C18.7083 4.625 22.7083 3.125 26.875 2.125C31.125 1.125 35.4167 0.625 39.75 0.625Z" fill="#F5DD00"/>
</g>
<g style="mix-blend-mode:difference">
<path d="M89.375 0.625C92.2917 0.625 95.125 1.125 97.875 2.125C100.708 3.125 103.417 4.58333 106 6.5C106.417 6.91667 106.875 7.33333 107.375 7.75C107.792 7.33333 108.25 6.91667 108.75 6.5C111.333 4.58333 114 3.125 116.75 2.125C119.583 1.125 122.417 0.625 125.25 0.625C128.167 0.625 131 1.125 133.75 2.125C136.583 3.125 139.25 4.625 141.75 6.625C144.333 8.54167 146.583 11.125 148.5 14.375C150.5 17.625 151.5 21.5 151.5 26V71.125C151 76.125 148.25 78.8333 143.25 79.25C140.917 79.25 138.875 78.5 137.125 77C135.458 75.4167 134.625 73.4583 134.625 71.125V27C134.625 25 134.25 23.3333 133.5 22C132.75 20.5833 131.917 19.5 131 18.75C130.083 17.9167 129.125 17.3333 128.125 17C127.125 16.5833 126.125 16.375 125.125 16.375C124.125 16.375 123.125 16.5833 122.125 17C121.208 17.3333 120.292 17.9167 119.375 18.75C118.458 19.5 117.625 20.5833 116.875 22C116.125 23.3333 115.708 25 115.625 27V71.125C115.125 76.125 112.375 78.8333 107.375 79.25C105.042 79.25 103 78.5 101.25 77C99.5833 75.4167 98.75 73.4583 98.75 71.125V27C98.75 25 98.375 23.3333 97.625 22C96.875 20.5833 96.0417 19.5 95.125 18.75C94.2083 17.9167 93.25 17.3333 92.25 17C91.25 16.5833 90.25 16.375 89.25 16.375C88.25 16.375 87.25 16.5833 86.25 17C85.3333 17.3333 84.4167 17.9167 83.5 18.75C82.5833 19.5 81.75 20.5833 81 22C80.25 23.3333 79.8333 25 79.75 27V71.125C79.3333 76.125 76.625 78.8333 71.625 79.25C69.2917 79.25 67.25 78.5 65.5 77C63.8333 75.4167 63 73.4583 63 71.125V26C63.1667 21.5 64.2083 17.625 66.125 14.375C68.0417 11.125 70.2917 8.54167 72.875 6.625C75.4583 4.625 78.125 3.125 80.875 2.125C83.7083 1.125 86.5417 0.625 89.375 0.625Z" fill="#DE0C0C"/>
</g>
</svg>